<svg id="Layer_1" data-name="Layer 1" xmlns="http://www.w3.org/2000/svg" viewBox="0 0 50 50"><title>Монтажная область 1</title><path d="M48.16,0,38.91,1.82a1.54,1.54,0,0,0-1.25,1.51V9.56H2.19A1.54,1.54,0,0,0,.92,12L9.44,24.4a1.54,1.54,0,0,0,1.27.67H35.83v3.42H14.33a5,5,0,1,0,4.91,5,5.11,5.11,0,0,0-.38-1.95H31.53a5.11,5.11,0,0,0-.38,1.95,4.91,4.91,0,1,0,9.81,0,5.06,5.06,0,0,0-2-4.06v-4.4h.29a1.54,1.54,0,0,0,1.54-1.54V11.1s0-.08,0-.12,0-.08,0-.12V4.61l8-1.55a1.54,1.54,0,1,0-.59-3ZM14.33,35.47a2,2,0,1,1,1.82-2A1.89,1.89,0,0,1,14.33,35.47Zm21.72,0a2,2,0,1,1,1.82-2A1.89,1.89,0,0,1,36.05,35.47ZM5.12,12.65H37.66V22H11.53Z"/></svg>